

<svg fill="#F4F3EF" width="100%" height="100%" viewBox="40 162 445 177" version="1.1" xmlns="http://www.w3.org/2000/svg" xmlns:xlink="http://www.w3.org/1999/xlink" xml:space="preserve" xmlns:serif="http://www.serif.com/" style="fill-rule:evenodd;clip-rule:evenodd;stroke-linejoin:round;stroke-miterlimit:2;">
    <g transform="matrix(0.075559,0,0,0.075559,262.590811,260.118257)">
        <g transform="matrix(1,0,0,1,-4166.666667,-4166.666667)">
            <g transform="matrix(4.166667,0,0,4.166667,0,0)">
                <path d="M1201.322,1168.176C1184.977,1168.462 1170.405,1162.768 1157.606,1151.094C1144.812,1139.42 1135.57,1120.414 1129.878,1094.075L1127.118,1076.773C1126.764,1075.127 1126.495,1073.727 1126.312,1072.573C1126.129,1071.42 1125.381,1070.689 1124.068,1070.381C1111.599,1067.955 1101.826,1060.855 1094.751,1049.082C1086.019,1036.015 1081.538,1022.874 1081.307,1009.659C1081.122,999.087 1085.379,991.081 1094.077,985.641C1101.81,980.879 1107.617,977.72 1111.498,976.165C1115.379,974.61 1117.879,973.244 1118.998,972.068C1120.117,970.892 1120.651,968.817 1120.599,965.843C1121.276,892.794 1142.716,852.431 1184.92,844.753C1191.089,843.654 1198.08,843.036 1205.894,842.899C1212.731,842.779 1219.333,843.165 1225.699,844.055C1232.065,844.94 1236.978,846.52 1240.437,848.793C1243.896,851.067 1245.652,853.7 1245.705,856.694C1245.781,861.025 1243.923,866.557 1240.133,873.29C1235.401,882.038 1231.381,894.271 1228.073,909.991C1226.585,918.016 1225.911,926.026 1226.051,934.023C1226.197,942.35 1227.482,950.656 1229.906,958.943C1230.598,961.265 1231.351,962.419 1232.165,962.405L1264.642,961.837C1266.921,961.797 1268.22,961.609 1268.54,961.273C1268.86,960.937 1269,959.618 1268.959,957.315C1268.602,936.904 1267.563,919.385 1265.842,904.761C1264.121,890.136 1262.358,877.818 1260.555,867.806C1258.751,857.789 1257.795,849.652 1257.686,843.395C1257.41,827.593 1269.318,819.482 1293.411,819.061L1304.661,819.856C1326.852,822.442 1345.35,832.612 1360.153,850.364C1374.956,868.117 1386.481,889.314 1394.729,913.956C1405.748,948.134 1411.602,984.88 1412.289,1024.196C1412.959,1062.52 1409.375,1090.344 1401.536,1107.666C1393.668,1123.336 1372.478,1131.473 1337.967,1132.077C1326.572,1132.276 1315.799,1130.812 1305.648,1127.685C1284.666,1119.79 1273.907,1100.479 1273.37,1069.754C1273.231,1061.825 1273.459,1056.203 1274.052,1052.887L1274.488,1049.905C1274.471,1048.914 1273.811,1048.43 1272.509,1048.452L1263.718,1048.606C1254.927,1048.76 1245.959,1048.09 1236.814,1046.598C1249.282,1070.505 1257.861,1095.472 1262.55,1121.498L1263.142,1127.436C1263.362,1139.991 1257.503,1149.512 1245.566,1156C1235.246,1161.799 1224.237,1165.461 1212.539,1166.988L1201.324,1168.176L1201.322,1168.176Z"/>
            </g>
            <g transform="matrix(4.166667,0,0,4.166667,0,0)">
                <path d="M1109.934,965.184C1110.793,885.4 1136.814,842.662 1183.009,834.257L1183.047,834.25C1189.712,833.062 1197.264,832.38 1205.706,832.232C1213.116,832.102 1220.27,832.524 1227.169,833.489C1235.462,834.642 1241.79,836.917 1246.296,839.879C1246.564,840.055 1246.826,840.233 1247.082,840.412C1247.571,832.354 1250.523,825.811 1255.587,820.652C1262.719,813.386 1275.08,808.711 1293.223,808.394C1293.536,808.389 1293.849,808.397 1294.161,808.419L1305.411,809.214C1305.572,809.225 1305.734,809.24 1305.894,809.259C1330.858,812.168 1351.693,823.561 1368.346,843.532C1383.956,862.253 1396.148,884.585 1404.845,910.571L1404.882,910.683C1416.21,945.819 1422.249,983.592 1422.956,1024.01C1423.663,1064.461 1419.529,1093.782 1411.255,1112.066C1411.196,1112.197 1411.134,1112.326 1411.07,1112.455C1401.947,1130.626 1378.17,1142.047 1338.152,1142.746C1325.582,1142.966 1313.702,1141.332 1302.505,1137.883C1302.298,1137.819 1302.092,1137.749 1301.889,1137.672C1288.129,1132.494 1277.754,1123.348 1271.144,1110.02C1271.836,1113.2 1272.472,1116.396 1273.05,1119.607C1273.1,1119.883 1273.139,1120.161 1273.166,1120.44L1273.758,1126.378C1273.787,1126.668 1273.804,1126.959 1273.809,1127.251C1274.101,1143.924 1266.556,1156.712 1250.736,1165.335C1239.23,1171.791 1226.957,1175.868 1213.918,1177.57C1213.832,1177.581 1213.747,1177.591 1213.661,1177.6L1202.446,1178.788C1202.135,1178.821 1201.822,1178.84 1201.509,1178.846C1182.418,1179.18 1165.365,1172.614 1150.416,1158.979L1150.414,1158.978C1136.313,1146.111 1125.722,1125.361 1119.448,1096.331C1119.407,1096.141 1119.371,1095.95 1119.341,1095.758L1116.759,1079.575C1103.851,1075.77 1093.471,1067.568 1085.743,1054.81C1075.84,1039.923 1070.9,1024.903 1070.637,1009.848C1070.381,995.193 1076.36,984.137 1088.418,976.597L1088.481,976.558C1096.924,971.359 1103.291,967.961 1107.528,966.263C1108.334,965.94 1109.198,965.541 1109.934,965.185L1109.934,965.184ZM1263.454,1082.047C1263.026,1078.202 1262.773,1074.168 1262.699,1069.942C1262.627,1065.841 1262.66,1062.291 1262.781,1059.292C1260.085,1059.319 1257.374,1059.275 1254.648,1059.158C1257.94,1066.691 1260.875,1074.321 1263.454,1082.047ZM1251.05,875.499C1250.558,876.47 1250.03,877.461 1249.463,878.47C1245.143,886.493 1241.567,897.713 1238.538,912.079C1237.2,919.345 1236.592,926.598 1236.719,933.839C1236.823,939.771 1237.583,945.691 1238.997,951.616L1258.159,951.281C1257.722,933.922 1256.755,918.831 1255.246,906.011C1253.873,894.348 1252.476,884.177 1251.051,875.499L1251.05,875.499ZM1201.322,1168.177L1212.537,1166.989C1224.235,1165.463 1235.244,1161.8 1245.564,1156.001C1257.501,1149.513 1263.359,1139.992 1263.14,1127.437L1262.548,1121.499C1257.859,1095.473 1249.28,1070.506 1236.812,1046.599C1245.957,1048.091 1254.925,1048.761 1263.716,1048.607L1272.507,1048.453C1273.809,1048.43 1274.469,1048.914 1274.486,1049.906L1274.05,1052.888C1273.457,1056.203 1273.229,1061.825 1273.368,1069.755C1273.905,1100.481 1284.665,1119.791 1305.646,1127.686C1315.797,1130.813 1326.57,1132.277 1337.965,1132.078C1372.477,1131.475 1393.666,1123.338 1401.534,1107.667C1409.373,1090.345 1412.958,1062.521 1412.287,1024.197C1411.599,984.881 1405.746,948.135 1394.727,913.957C1386.48,889.315 1374.955,868.118 1360.151,850.365C1345.348,832.612 1326.85,822.443 1304.659,819.857L1293.409,819.062C1269.316,819.483 1257.408,827.595 1257.684,843.396C1257.793,849.653 1258.75,857.79 1260.553,867.807C1262.356,877.819 1264.119,890.137 1265.84,904.762C1267.561,919.387 1268.6,936.905 1268.957,957.316C1268.997,959.618 1268.857,960.938 1268.538,961.274C1268.218,961.61 1266.919,961.798 1264.64,961.838L1232.163,962.406C1231.349,962.42 1230.596,961.266 1229.904,958.944C1227.479,950.657 1226.194,942.35 1226.049,934.024C1225.909,926.028 1226.583,918.017 1228.071,909.992C1231.379,894.272 1235.399,882.039 1240.131,873.291C1243.921,866.558 1245.779,861.026 1245.703,856.695C1245.651,853.701 1243.895,851.067 1240.435,848.794C1236.976,846.52 1232.063,844.941 1225.697,844.056C1219.331,843.166 1212.729,842.78 1205.892,842.9C1198.078,843.037 1191.087,843.655 1184.918,844.754C1142.714,852.432 1121.273,892.796 1120.597,965.844C1120.649,968.817 1120.115,970.892 1118.996,972.069C1117.877,973.245 1115.377,974.611 1111.496,976.166C1107.615,977.721 1101.808,980.88 1094.075,985.642C1085.377,991.082 1081.12,999.088 1081.305,1009.66C1081.536,1022.875 1086.018,1036.016 1094.749,1049.083C1101.825,1060.857 1111.597,1067.956 1124.066,1070.382C1125.379,1070.69 1126.127,1071.42 1126.31,1072.574C1126.493,1073.727 1126.762,1075.127 1127.116,1076.774L1129.876,1094.076C1135.568,1120.415 1144.811,1139.422 1157.604,1151.095C1170.403,1162.769 1184.975,1168.462 1201.32,1168.177L1201.322,1168.177Z" style="fill:#0B0B0C;"/>
            </g>
            <g transform="matrix(4.166667,0,0,4.166667,0,0)">
                <path d="M1025.358,1164.082C1013.088,1164.226 999.673,1160.607 985.112,1153.225C955.332,1135.953 931.493,1108.778 913.596,1071.701C895.699,1034.624 886.525,996.894 886.076,958.511C885.778,933.027 889.986,909.457 898.7,887.802C907.414,866.146 921.61,849.067 941.287,836.565C954.101,829.178 967.273,825.405 980.801,825.247C994.959,825.081 1007.445,829.97 1018.259,839.912C1019.532,841.156 1020.483,841.774 1021.113,841.767L1021.585,841.761C1022.726,831.679 1027.366,824.859 1035.505,821.303C1048.338,815.489 1064.979,812.462 1085.429,812.223C1092.665,812.138 1099.122,812.695 1104.8,813.892C1113.95,815.992 1119.768,822.473 1122.255,833.334C1124.742,844.195 1126.448,862.246 1127.373,887.486L1129.271,928.652C1129.393,939.064 1128.221,946.494 1125.756,950.943C1123.291,955.392 1118.919,958.206 1112.639,959.386C1106.36,960.561 1098.823,961.831 1090.028,963.198C1078.091,964.916 1067.718,965.826 1058.909,965.93C1044.751,966.096 1032.876,959.627 1023.283,946.524C1020.411,943.096 1017.62,939.904 1014.911,936.946C1012.202,933.988 1009.431,932.526 1006.6,932.559C1002.825,932.603 999.251,936.421 995.878,944.012C991.91,954.442 990.008,966.736 990.174,980.894C990.343,995.366 992.482,1010.051 996.589,1024.949C1000.697,1039.847 1006.585,1052.286 1014.253,1062.265C1021.589,1070.675 1027.931,1074.849 1033.279,1074.786C1040.515,1074.701 1044.53,1068.204 1045.322,1055.294L1045.3,1053.406C1045.282,1051.833 1044.329,1051.057 1042.441,1051.08C1038.351,1051.128 1034.705,1048.776 1031.503,1044.025C1026.687,1035.787 1024.226,1027.2 1024.122,1018.263C1024.073,1014.114 1024.495,1009.8 1025.386,1005.32C1027.487,996.682 1034.107,990.94 1045.244,988.096C1056.381,985.252 1073.748,983.692 1097.344,983.415C1113.704,983.224 1125.732,989.282 1133.428,1001.592C1141.124,1013.896 1147.215,1036.967 1151.702,1070.804C1154.439,1089.602 1156.551,1108.722 1158.037,1128.165C1158.081,1131.931 1157.247,1134.607 1155.535,1136.196C1153.823,1137.784 1150.617,1139.39 1145.916,1141.014C1134.949,1144.908 1125.082,1148.79 1116.317,1152.659C1104.735,1157.814 1096.274,1160.738 1090.932,1161.43C1086.842,1161.478 1083.597,1159.785 1081.197,1156.352C1078.797,1152.919 1076.947,1149.479 1075.648,1146.033C1074.349,1142.587 1073.065,1140.399 1071.795,1139.47C1070.251,1142.005 1068.547,1144.228 1066.681,1146.138C1056.435,1157.9 1042.66,1163.883 1025.356,1164.085L1025.358,1164.082Z"/>
            </g>
            <g transform="matrix(4.166667,0,0,4.166667,0,0)">
                <path d="M1015.985,824.654C1019.448,818.798 1024.541,814.463 1031.136,811.567C1045.072,805.261 1063.108,801.812 1085.305,801.552C1093.411,801.457 1100.642,802.108 1107.002,803.449L1107.188,803.49C1120.303,806.501 1129.091,815.382 1132.656,830.95C1135.233,842.204 1137.074,860.896 1138.034,887.041L1139.93,928.158C1139.936,928.28 1139.939,928.402 1139.941,928.524C1140.092,941.448 1138.15,950.589 1135.09,956.111C1131.191,963.147 1124.542,968.003 1114.61,969.869L1114.602,969.87C1109.792,970.77 1104.255,971.726 1097.99,972.737C1118.184,972.701 1132.911,980.633 1142.476,995.931C1150.651,1009.002 1157.503,1033.401 1162.271,1069.33C1165.038,1088.344 1167.174,1107.683 1168.677,1127.348C1168.695,1127.577 1168.705,1127.807 1168.707,1128.036C1168.796,1135.663 1166.261,1140.796 1162.793,1144.014C1160.388,1146.245 1156.042,1148.796 1149.452,1151.077C1138.777,1154.868 1129.171,1158.645 1120.637,1162.411C1107.738,1168.151 1098.254,1171.236 1092.304,1172.006C1091.891,1172.06 1091.475,1172.089 1091.058,1172.094C1083.254,1172.185 1077.033,1169.011 1072.453,1162.46C1071.478,1161.065 1070.579,1159.668 1069.755,1158.27C1058.177,1168.964 1043.456,1174.539 1025.483,1174.749C1011.718,1174.91 996.623,1171.021 980.288,1162.74C980.109,1162.649 979.933,1162.554 979.759,1162.453C948.261,1144.184 922.918,1115.554 903.987,1076.337C885.377,1037.784 875.874,998.544 875.407,958.633C875.091,931.666 879.58,906.732 888.802,883.816C898.371,860.037 913.959,841.284 935.566,827.556C935.695,827.474 935.826,827.394 935.959,827.318C950.456,818.961 965.373,814.754 980.677,814.575C993.607,814.424 1005.382,817.767 1015.985,824.652L1015.985,824.654ZM1025.358,1164.081C1042.662,1163.878 1056.437,1157.896 1066.683,1146.134C1068.549,1144.224 1070.253,1142.002 1071.797,1139.466C1073.067,1140.395 1074.351,1142.583 1075.65,1146.029C1076.949,1149.475 1078.798,1152.915 1081.199,1156.348C1083.599,1159.781 1086.844,1161.474 1090.934,1161.426C1096.275,1160.734 1104.737,1157.811 1116.319,1152.655C1125.084,1148.786 1134.95,1144.905 1145.918,1141.01C1150.619,1139.387 1153.825,1137.781 1155.537,1136.192C1157.249,1134.604 1158.083,1131.927 1158.039,1128.161C1156.553,1108.719 1154.441,1089.599 1151.704,1070.8C1147.217,1036.963 1141.126,1013.892 1133.43,1001.588C1125.734,989.279 1113.706,983.22 1097.346,983.411C1073.75,983.687 1056.383,985.247 1045.246,988.092C1034.109,990.936 1027.49,996.678 1025.388,1005.316C1024.496,1009.796 1024.075,1014.11 1024.124,1018.259C1024.229,1027.196 1026.689,1035.783 1031.505,1044.021C1034.707,1048.772 1038.353,1051.124 1042.443,1051.076C1044.331,1051.054 1045.284,1051.829 1045.302,1053.402L1045.324,1055.29C1044.531,1068.2 1040.517,1074.698 1033.281,1074.782C1027.933,1074.845 1021.591,1070.671 1014.255,1062.261C1006.586,1052.282 1000.698,1039.843 996.591,1024.945C992.483,1010.047 990.345,995.362 990.176,980.89C990.01,966.732 991.912,954.439 995.88,944.008C999.252,936.417 1002.826,932.599 1006.602,932.555C1009.434,932.522 1012.204,933.984 1014.913,936.942C1017.622,939.9 1020.413,943.092 1023.285,946.52C1032.878,959.623 1044.753,966.092 1058.911,965.926C1067.72,965.823 1078.093,964.912 1090.03,963.194C1098.824,961.828 1106.361,960.557 1112.641,959.382C1118.92,958.202 1123.293,955.388 1125.758,950.939C1128.223,946.49 1129.395,939.06 1129.273,928.648L1127.375,887.482C1126.45,862.242 1124.744,844.191 1122.257,833.33C1119.77,822.469 1113.952,815.988 1104.802,813.888C1099.124,812.691 1092.667,812.135 1085.431,812.219C1064.981,812.458 1048.34,815.485 1035.507,821.299C1027.368,824.855 1022.728,831.675 1021.587,841.757L1021.115,841.763C1020.486,841.77 1019.535,841.152 1018.261,839.908C1007.446,829.966 994.96,825.077 980.803,825.243C967.275,825.401 954.103,829.174 941.289,836.561C921.612,849.063 907.416,866.142 898.702,887.798C889.988,909.454 885.78,933.024 886.078,958.507C886.527,996.89 895.701,1034.62 913.598,1071.697C931.495,1108.774 955.334,1135.949 985.114,1153.221C999.675,1160.602 1013.09,1164.221 1025.36,1164.078L1025.358,1164.081ZM1050.687,976.066C1036.809,974.082 1024.813,966.547 1014.89,953.117C1012.395,950.146 1009.965,947.359 1007.598,944.758C1006.975,945.751 1006.27,946.957 1005.736,948.109C1002.271,957.362 1000.697,968.256 1000.844,980.767C1001.003,994.349 1003.021,1008.13 1006.876,1022.111C1010.54,1035.399 1015.703,1046.549 1022.522,1055.509C1025.342,1058.716 1027.929,1061.176 1030.378,1062.788C1031.243,1063.357 1031.966,1063.896 1032.689,1064.063C1032.936,1063.572 1033.331,1062.743 1033.522,1062.107C1033.714,1061.468 1033.881,1060.786 1034.025,1060.062C1029.918,1058.286 1026.06,1055.039 1022.656,1049.987C1022.529,1049.798 1022.408,1049.606 1022.293,1049.409C1016.496,1039.493 1013.58,1029.144 1013.454,1018.386C1013.397,1013.53 1013.879,1008.479 1014.923,1003.236C1014.952,1003.089 1014.985,1002.942 1015.02,1002.797C1017.998,990.554 1026.821,981.788 1042.605,977.757C1045.02,977.14 1047.714,976.577 1050.687,976.068L1050.687,976.066Z" style="fill:#0B0B0C;"/>
            </g>
            <g transform="matrix(4.166667,0,0,4.166667,0,0)">
                <path d="M832.165,1151.257C814.824,1151.46 802.134,1150.848 794.096,1149.422C786.058,1147.996 780.49,1144.598 777.392,1139.23C771.63,1128.487 768.683,1117.543 768.553,1106.396C768.486,1100.654 771.11,1097.076 776.425,1095.663C781.74,1094.25 788.022,1093.5 795.27,1093.416C802.525,1093.331 806.467,1093.01 807.098,1092.454C807.735,1091.898 808.034,1089.973 807.996,1086.679L805.606,882.497C805.578,880.133 805.349,878.784 804.918,878.451C804.494,878.118 803.019,877.967 800.492,877.996L787.842,878.144C781.095,878.223 775.607,877.612 771.378,876.31C763.337,874.039 759.18,861.251 758.907,837.945L758.765,825.785C758.674,818.016 763.397,814.076 772.935,813.964C790.698,812.743 810.201,812.008 831.444,811.759L874.99,809.222C891.89,808.349 904.675,807.861 913.346,807.76C922.45,807.653 928.312,808.345 930.931,809.834C933.55,811.324 934.886,814.33 934.939,818.853L935.107,833.166C935.193,840.534 934.946,847.739 934.364,854.782C933.789,861.82 931.094,866.288 926.279,868.186C921.464,870.085 915.097,871.08 907.178,871.173C896.184,871.302 890.578,871.621 890.361,872.13C890.15,872.639 890.055,873.738 890.074,875.427L892.227,1059.343C892.425,1076.232 892.945,1085.093 893.788,1085.928C894.638,1086.763 896.177,1087.167 898.406,1087.141L915.314,1086.943C921.383,1086.872 925.509,1087.41 927.69,1088.556C929.871,1089.702 931.528,1092.364 932.661,1096.542C933.794,1100.715 935.169,1107.064 936.786,1115.591C938.403,1124.113 939.237,1130.55 939.288,1134.904C939.351,1140.266 937.115,1143.729 932.581,1145.291C928.047,1146.848 922.745,1147.663 916.675,1147.734C895.018,1149.677 866.849,1150.851 832.166,1151.257L832.165,1151.257Z"/>
            </g>
            <g transform="matrix(4.166667,0,0,4.166667,0,0)">
                <path d="M900.82,881.989L902.894,1059.218C902.972,1065.899 903.23,1072.082 903.455,1076.411L915.186,1076.274C923.79,1076.173 929.558,1077.486 932.65,1079.111C936.801,1081.292 940.8,1085.798 942.956,1093.748C944.137,1098.098 945.581,1104.714 947.267,1113.602C949.04,1122.943 949.9,1130.007 949.956,1134.78C950.082,1145.557 945.169,1152.239 936.056,1155.38L936.045,1155.384C930.66,1157.234 924.389,1158.278 917.227,1158.398C895.411,1160.338 867.099,1161.52 832.29,1161.927C814.041,1162.141 800.691,1161.43 792.232,1159.929C780.498,1157.847 772.673,1152.401 768.15,1144.563C768.095,1144.467 768.041,1144.371 767.989,1144.274C761.366,1131.927 758.033,1119.333 757.883,1106.522C757.818,1100.975 759.331,1096.553 761.866,1093.097C764.501,1089.504 768.344,1086.772 773.682,1085.352C779.737,1083.742 786.887,1082.844 795.144,1082.747C795.857,1082.739 796.575,1082.722 797.277,1082.701L795.007,888.732L787.966,888.814C779.899,888.908 773.345,888.074 768.348,886.542C762.579,884.873 757.45,880.688 753.905,873.01C750.519,865.678 748.424,854.063 748.237,838.07L748.095,825.91C748.025,819.946 749.744,815.252 752.63,811.639C756.46,806.847 762.856,803.481 772.483,803.3C790.285,802.082 809.814,801.346 831.068,801.093L874.367,798.571L874.437,798.567C891.524,797.684 904.452,797.194 913.218,797.091C925.17,796.951 932.764,798.604 936.203,800.56C941.632,803.648 945.495,809.353 945.605,818.729L945.773,833.042C945.863,840.749 945.603,848.286 944.995,855.653C944.007,867.747 938.464,874.85 930.19,878.113C924.414,880.39 916.8,881.732 907.301,881.843C904.974,881.87 902.769,881.926 900.82,881.99L900.82,881.989ZM832.165,1151.256C866.847,1150.85 895.017,1149.676 916.674,1147.733C922.743,1147.662 928.045,1146.848 932.58,1145.29C937.114,1143.727 939.35,1140.265 939.287,1134.903C939.236,1130.549 938.402,1124.111 936.785,1115.59C935.168,1107.063 933.793,1100.714 932.66,1096.541C931.527,1092.363 929.87,1089.701 927.689,1088.555C925.508,1087.409 921.382,1086.871 915.313,1086.942L898.405,1087.14C896.176,1087.166 894.637,1086.762 893.787,1085.927C892.944,1085.092 892.424,1076.231 892.226,1059.342L890.073,875.426C890.053,873.737 890.149,872.638 890.36,872.129C890.578,871.62 896.183,871.301 907.177,871.172C915.096,871.079 921.463,870.084 926.278,868.185C931.093,866.286 933.788,861.818 934.363,854.781C934.945,847.738 935.192,840.533 935.106,833.165L934.938,818.852C934.885,814.329 933.549,811.323 930.93,809.833C928.311,808.343 922.449,807.652 913.345,807.759C904.674,807.86 891.889,808.348 874.989,809.221L831.443,811.758C810.2,812.007 790.697,812.742 772.934,813.963C763.396,814.075 758.673,818.015 758.764,825.784L758.906,837.944C759.179,861.25 763.336,874.039 771.377,876.309C775.606,877.611 781.094,878.222 787.841,878.143L800.491,877.995C803.018,877.965 804.493,878.117 804.917,878.45C805.348,878.783 805.577,880.131 805.605,882.496L807.995,1086.678C808.034,1089.971 807.734,1091.896 807.097,1092.453C806.467,1093.009 802.524,1093.33 795.269,1093.415C788.021,1093.5 781.739,1094.249 776.424,1095.662C771.109,1097.075 768.485,1100.653 768.552,1106.395C768.682,1117.541 771.629,1128.486 777.391,1139.229C780.489,1144.598 786.057,1147.995 794.095,1149.421C802.133,1150.847 814.823,1151.459 832.164,1151.256L832.165,1151.256Z" style="fill:#0B0B0C;"/>
            </g>
            <g transform="matrix(4.166667,0,0,4.166667,0,0)">
                <path d="M634.679,1181.719L633.299,1181.735C621.338,1181.875 611.881,1160.054 604.927,1116.272C600.314,1089.027 597.815,1058.996 597.431,1026.18C597.162,1003.178 598.116,979.855 600.293,956.211C600.275,954.678 599.958,953.761 599.341,953.462C598.724,953.162 597.342,953.025 595.195,953.05L581.394,953.212C573.102,952.384 567.083,949.148 563.336,943.502C559.589,937.852 556.898,930.73 555.264,922.137C553.63,913.539 552.76,904.778 552.656,895.855C552.123,850.321 569.921,822.113 606.051,811.233C619.829,807.07 634.86,804.893 651.144,804.702C675.104,804.422 699.655,808.505 724.796,816.953C749.937,825.401 771.593,838.107 789.764,855.071C807.94,872.035 819.175,893.375 823.468,919.091L823.624,932.432C823.789,946.54 821.521,959.756 816.82,972.08C812.124,984.404 806.06,996.438 798.63,1008.181C792.973,1016.222 790.166,1022.083 790.209,1025.763C790.266,1030.67 799.537,1036.543 818.021,1043.381C827.572,1046.95 836.13,1050.914 843.696,1055.273C851.262,1059.632 855.085,1065.185 855.164,1071.933C855.247,1078.987 848.008,1089.501 833.448,1103.474C813.126,1123.036 797.036,1137.334 785.179,1146.368C778.796,1151.35 773.151,1153.87 768.244,1153.928C763.03,1153.989 757.782,1151.136 752.5,1145.37C747.218,1139.604 740.215,1130.944 731.491,1119.39L722.15,1107.537L721.235,1108.008C726.874,1118.064 731.267,1126.525 734.415,1133.389C737.563,1140.254 739.163,1145.986 739.217,1150.587C739.314,1158.868 733.018,1164.769 720.33,1168.292C707.642,1171.815 686.444,1175.59 656.738,1179.619C653.061,1179.969 649.385,1180.395 645.711,1180.898C642.036,1181.401 638.358,1181.674 634.678,1181.717L634.679,1181.719ZM693.813,1005.728C698.082,1003.531 702.461,997.728 706.952,988.32C711.443,978.912 713.626,968.841 713.5,958.107C713.399,949.52 711.006,941.572 706.319,934.266C703.509,930.005 699.796,927.287 695.181,926.115C694.261,926.126 693.81,926.898 693.828,928.431L692.763,994.698C692.806,998.378 693.156,1002.055 693.812,1005.728L693.813,1005.728Z"/>
            </g>
            <g transform="matrix(4.166667,0,0,4.166667,0,0)">
                <path d="M801.625,1023.849C802.65,1024.594 804.043,1025.548 805.374,1026.275C809.464,1028.507 814.92,1030.86 821.723,1033.376L821.756,1033.388C831.9,1037.179 840.986,1041.4 849.022,1046.03C860.535,1052.663 865.712,1061.543 865.832,1071.81C865.883,1076.141 864.491,1081.437 860.946,1087.468C857.124,1093.969 850.481,1101.916 840.845,1111.165C820.165,1131.072 803.771,1145.613 791.706,1154.811C782.995,1161.601 775.067,1164.521 768.368,1164.6C762.11,1164.673 755.583,1162.368 749.168,1156.959C746.842,1166.459 738.763,1174.251 723.184,1178.576C710.211,1182.178 688.545,1186.076 658.172,1190.195C658.031,1190.214 657.89,1190.23 657.749,1190.244C654.218,1190.58 650.688,1190.989 647.158,1191.473C643.043,1192.036 638.924,1192.342 634.803,1192.39L633.423,1192.406C626.959,1192.482 620.539,1189.655 614.887,1182.61C606.932,1172.695 599.688,1151.288 594.397,1118.002C589.705,1090.269 587.152,1059.705 586.761,1026.306C586.52,1005.722 587.243,984.885 588.93,963.795L581.517,963.882C581.121,963.887 580.726,963.869 580.332,963.83C568.347,962.633 559.861,957.564 554.445,949.404L554.443,949.401C550.005,942.709 546.717,934.311 544.781,924.132C543.031,914.923 542.098,905.539 541.986,895.982C541.385,844.623 562.221,813.292 602.972,801.019C617.654,796.584 633.667,794.238 651.018,794.035C676.123,793.741 701.851,797.99 728.193,806.841C754.842,815.796 777.782,829.291 797.044,847.274C816.943,865.847 829.291,889.184 833.991,917.337C834.081,917.877 834.13,918.422 834.136,918.969L834.292,932.31C834.473,947.816 831.956,962.338 826.789,975.884C821.845,988.858 815.467,1001.528 807.646,1013.889C807.553,1014.036 807.456,1014.181 807.356,1014.323C804.938,1017.76 803.104,1020.715 801.904,1023.219C801.81,1023.415 801.716,1023.63 801.625,1023.85L801.625,1023.849ZM634.678,1181.719C638.358,1181.676 642.036,1181.403 645.711,1180.9C649.386,1180.397 653.062,1179.97 656.738,1179.621C686.444,1175.592 707.641,1171.817 720.33,1168.294C733.018,1164.771 739.314,1158.87 739.217,1150.589C739.163,1145.989 737.562,1140.256 734.415,1133.391C731.267,1126.526 726.874,1118.066 721.235,1108.01L722.15,1107.539L731.491,1119.392C740.215,1130.946 747.218,1139.606 752.5,1145.372C757.782,1151.138 763.03,1153.991 768.244,1153.93C773.151,1153.873 778.796,1151.353 785.179,1146.37C797.036,1137.336 813.126,1123.038 833.448,1103.476C848.008,1089.503 855.246,1078.989 855.164,1071.935C855.085,1065.188 851.263,1059.635 843.696,1055.275C836.13,1050.916 827.572,1046.952 818.021,1043.383C799.537,1036.544 790.266,1030.672 790.209,1025.765C790.166,1022.085 792.973,1016.224 798.63,1008.183C806.06,996.44 812.124,984.406 816.82,972.082C821.521,959.758 823.789,946.541 823.624,932.434L823.468,919.093C819.175,893.377 807.94,872.038 789.764,855.073C771.593,838.109 749.937,825.402 724.796,816.955C699.655,808.507 675.104,804.424 651.144,804.704C634.861,804.895 619.83,807.071 606.051,811.235C569.921,822.116 552.123,850.323 552.656,895.857C552.76,904.78 553.63,913.54 555.264,922.139C556.898,930.732 559.589,937.854 563.336,943.504C567.083,949.149 573.102,952.386 581.394,953.214L595.195,953.052C597.342,953.027 598.724,953.164 599.341,953.464C599.958,953.764 600.275,954.68 600.293,956.213C598.116,979.857 597.162,1003.18 597.431,1026.182C597.815,1058.998 600.314,1089.029 604.927,1116.274C611.881,1160.056 621.338,1181.877 633.299,1181.737L634.679,1181.721L634.678,1181.719ZM693.812,1005.728C693.156,1002.055 692.806,998.378 692.763,994.698L693.828,928.431C693.81,926.898 694.261,926.125 695.181,926.115C699.796,927.288 703.508,930.005 706.319,934.266C711.006,941.573 713.399,949.52 713.5,958.107C713.626,968.841 711.443,978.912 706.952,988.32C702.461,997.728 698.081,1003.531 693.813,1005.728L693.812,1005.728Z" style="fill:#0B0B0C;"/>
            </g>
            <g transform="matrix(4.166667,0,0,4.166667,0,0)">
                <path d="M1440.272,1187.6C1425.972,1185.5 1413.372,1178.545 1402.473,1166.735C1391.573,1154.926 1385.802,1139.111 1385.16,1119.292C1385.084,1114.436 1385.419,1109.468 1386.165,1104.386C1388.454,1088.804 1393.423,1073.789 1401.073,1059.34C1408.723,1044.891 1416.878,1031.036 1425.538,1017.774L1435.687,1001.097C1443.375,989.076 1447.567,980.695 1448.264,975.953L1447.908,974.344C1443.27,973.663 1429.82,976.532 1407.556,982.951C1396.424,986.161 1385.754,988.919 1375.544,991.226C1363.639,994.322 1354.982,995.473 1349.571,994.678C1344.547,993.94 1341.245,991.552 1339.667,987.513C1338.089,983.475 1337.897,977.391 1339.091,969.261C1342.425,946.565 1348.443,917.689 1357.146,882.632L1358.845,871.065C1359.338,867.709 1360.589,865.238 1362.599,863.652C1364.61,862.06 1367.09,860.627 1370.041,859.352C1380.006,856.02 1405.529,854.289 1446.61,854.159C1487.691,854.024 1527.943,856.852 1567.364,862.642L1587.654,865.622C1600.021,867.439 1611.139,870.375 1621.006,874.43C1630.873,878.486 1638.474,883.857 1643.809,890.545C1649.144,897.233 1651.037,905.846 1649.489,916.384C1645.144,945.966 1630.472,970.21 1605.474,989.118C1591.679,999.247 1576.236,1003.056 1559.147,1000.546C1550.602,999.291 1544.073,997.813 1539.561,996.112C1535.048,994.411 1531.433,993.361 1528.716,992.962C1524.441,992.334 1522.029,993.883 1521.482,997.609C1520.139,1006.755 1519.943,1018.838 1520.895,1033.858C1521.977,1064.123 1521.125,1088.741 1518.338,1107.71C1514.059,1136.842 1504.591,1158.29 1489.935,1172.056C1473.832,1184.917 1457.278,1190.098 1440.273,1187.601L1440.272,1187.6Z"/>
            </g>
            <g transform="matrix(4.166667,0,0,4.166667,0,0)">
                <path d="M1531.422,1004.565C1530.766,1012.328 1530.825,1021.868 1531.542,1033.182C1531.548,1033.28 1531.553,1033.378 1531.557,1033.476C1532.667,1064.533 1531.753,1089.794 1528.894,1109.26C1524.188,1141.296 1513.356,1164.695 1497.239,1179.833C1497.031,1180.028 1496.816,1180.215 1496.593,1180.393C1477.861,1195.354 1458.504,1201.063 1438.722,1198.157C1422.067,1195.711 1407.327,1187.727 1394.632,1173.972C1382.126,1160.422 1375.232,1142.378 1374.496,1119.638L1374.492,1119.46C1374.407,1114.044 1374.777,1108.503 1375.609,1102.836C1378.073,1086.065 1383.41,1069.899 1391.644,1054.348C1399.421,1039.659 1407.71,1025.572 1416.511,1012.085L1426.573,995.551L1426.699,995.349C1428.525,992.493 1430.151,989.899 1431.557,987.556C1425.802,988.932 1418.788,990.817 1410.513,993.203C1399.231,996.456 1388.415,999.253 1378.072,1001.593C1364.326,1005.155 1354.282,1006.153 1348.022,1005.234C1338.595,1003.849 1332.692,998.974 1329.731,991.397C1327.681,986.152 1326.985,978.269 1328.536,967.71C1331.893,944.857 1337.929,915.808 1346.666,880.568L1348.29,869.514C1349.25,862.98 1352.073,858.37 1355.985,855.28C1358.646,853.175 1361.907,851.243 1365.811,849.556C1366.089,849.436 1366.372,849.328 1366.66,849.231C1377.064,845.752 1403.688,843.623 1446.578,843.487C1488.199,843.35 1528.978,846.217 1568.917,852.083L1589.207,855.063C1602.506,857.016 1614.454,860.198 1625.065,864.559C1636.825,869.392 1645.795,875.919 1652.153,883.89C1659.2,892.725 1662.093,904.013 1660.049,917.933C1655.291,950.329 1639.29,976.92 1611.914,997.626L1611.792,997.717C1595.654,1009.566 1577.592,1014.037 1557.599,1011.101C1548.082,1009.703 1540.826,1007.989 1535.8,1006.094C1534.197,1005.49 1532.74,1004.976 1531.426,1004.563L1531.422,1004.565ZM1440.272,1187.6C1457.277,1190.098 1473.831,1184.916 1489.934,1172.055C1504.59,1158.29 1514.058,1136.841 1518.337,1107.709C1521.123,1088.74 1521.976,1064.122 1520.894,1033.857C1519.942,1018.837 1520.137,1006.754 1521.481,997.608C1522.028,993.882 1524.44,992.333 1528.715,992.961C1531.432,993.36 1535.048,994.41 1539.56,996.111C1544.073,997.812 1550.602,999.29 1559.146,1000.545C1576.236,1003.055 1591.678,999.246 1605.473,989.117C1630.471,970.209 1645.143,945.965 1649.488,916.383C1651.036,905.845 1649.142,897.232 1643.808,890.544C1638.473,883.856 1630.872,878.484 1621.005,874.429C1611.138,870.373 1600.021,867.437 1587.653,865.621L1567.363,862.641C1527.942,856.851 1487.69,854.023 1446.609,854.158C1405.528,854.288 1380.005,856.019 1370.04,859.351C1367.089,860.626 1364.608,862.06 1362.598,863.651C1360.588,865.237 1359.337,867.708 1358.844,871.064L1357.145,882.631C1348.442,917.688 1342.424,946.564 1339.09,969.26C1337.896,977.39 1338.088,983.474 1339.666,987.512C1341.244,991.55 1344.546,993.939 1349.57,994.677C1354.981,995.472 1363.638,994.321 1375.543,991.225C1385.752,988.918 1396.423,986.16 1407.555,982.95C1429.818,976.531 1443.269,973.662 1447.907,974.343L1448.263,975.952C1447.566,980.694 1443.374,989.076 1435.686,1001.096L1425.537,1017.773C1416.877,1031.035 1408.722,1044.89 1401.072,1059.339C1393.422,1073.788 1388.453,1088.803 1386.164,1104.385C1385.418,1109.466 1385.083,1114.435 1385.159,1119.291C1385.801,1139.11 1391.572,1154.924 1402.472,1166.734C1413.372,1178.543 1425.971,1185.498 1440.271,1187.599L1440.272,1187.6Z" style="fill:#0B0B0C;"/>
            </g>
            <g transform="matrix(4.166667,0,0,4.166667,0,0)">
                <path d="M521.122,1195.301C488.618,1195.681 462.382,1185 442.415,1163.257C426.996,1145.985 416.739,1126.552 411.645,1104.958L411.058,1099.147C410.952,1090.099 415.714,1083.256 425.343,1078.619C429.47,1076.632 432.654,1075.382 434.896,1074.871C437.138,1074.36 438.253,1073.62 438.242,1072.65L437.701,1070.717C428.081,1046.59 420.346,1020.987 414.495,993.908C413.773,991.331 413.066,990.046 412.375,990.055C408.57,991.392 404.923,992.081 401.432,992.122C382.943,992.338 368.958,975.05 359.478,940.256C353.269,916.736 350.107,899.967 349.989,889.949C349.928,884.779 352.642,880.707 358.13,877.734C386.966,864.469 420.537,857.612 458.844,857.164C480.931,856.905 502.44,858.916 523.37,863.196C544.3,867.476 562.241,874.214 577.193,883.412C599.101,897.376 610.184,915.345 610.441,937.319C610.638,954.123 604.262,970.842 591.315,987.476L596.53,989.839C604.51,992.008 615.905,997.934 630.717,1007.618C645.528,1017.302 657.568,1033.886 666.834,1057.371C669.702,1066.064 671.19,1074.934 671.296,1083.982C671.504,1101.755 665.224,1119.2 652.455,1136.317C639.686,1153.434 618.847,1167.979 589.937,1179.952C566.537,1189.922 543.598,1195.038 521.122,1195.301ZM539.584,1088.432C541.313,1088.412 543.555,1087.901 546.31,1086.899C553.53,1083.259 557.106,1078.531 557.038,1072.715C557.004,1069.807 555.848,1067.073 553.57,1064.514C551.292,1061.955 547.9,1060.217 543.393,1059.3C537.515,1059.369 533.453,1059.578 531.21,1059.927C528.966,1060.276 527.852,1061.097 527.867,1062.39C527.882,1063.683 528.959,1067.063 531.098,1072.533C532.166,1075.106 533.328,1078.405 534.586,1082.43C535.844,1086.455 537.51,1088.456 539.584,1088.431L539.584,1088.432ZM501.373,970.591L504.479,970.07C514.819,967.04 519.949,962.132 519.869,955.346C519.831,952.115 517.474,949.233 512.797,946.703C507.766,944.823 503.105,943.908 498.815,943.958C495.244,944 492.387,944.195 490.246,944.543L488.104,945.053L488.195,952.809C489.761,958.285 491.409,962.629 493.138,965.84C494.867,969.052 497.612,970.636 501.372,970.591L501.373,970.591Z"/>
            </g>
            <g transform="matrix(4.166667,0,0,4.166667,0,0)">
                <path d="M607.713,982.54C615.441,985.841 625.076,991.182 636.556,998.688C652.924,1009.389 666.519,1027.503 676.759,1053.455C676.834,1053.644 676.903,1053.835 676.966,1054.028C680.181,1063.772 681.846,1073.715 681.964,1083.858C682.198,1103.816 675.345,1123.477 661.006,1142.698C647.297,1161.075 625.097,1176.933 594.111,1189.772C569.337,1200.326 545.041,1205.693 521.245,1205.972C485.414,1206.391 456.564,1194.444 434.554,1170.476L434.453,1170.365C417.806,1151.718 406.758,1130.724 401.258,1107.41C401.151,1106.956 401.074,1106.496 401.027,1106.032L400.44,1100.221C400.408,1099.906 400.39,1099.59 400.387,1099.274C400.233,1086.084 406.675,1075.768 420.711,1069.008C422.188,1068.297 423.57,1067.669 424.855,1067.121C417.1,1046.618 410.642,1025.097 405.484,1002.552C404.158,1002.698 402.848,1002.778 401.555,1002.793C389.187,1002.938 378.134,997.595 368.779,986.03C361.072,976.501 354.407,962.239 349.182,943.063L349.16,942.981C342.634,918.258 339.442,900.606 339.319,890.076C339.213,881.025 343.44,873.559 353.047,868.354C353.251,868.243 353.459,868.139 353.67,868.042C383.752,854.204 418.756,846.964 458.719,846.496C481.581,846.228 503.844,848.314 525.508,852.743C547.79,857.299 566.866,864.533 582.784,874.324L582.928,874.414C608.345,890.614 620.812,911.7 621.11,937.194C621.287,952.341 616.909,967.489 607.713,982.539L607.713,982.54ZM521.122,1195.302C543.598,1195.039 566.537,1189.923 589.937,1179.953C618.847,1167.98 639.687,1153.435 652.455,1136.318C665.224,1119.201 671.504,1101.756 671.296,1083.983C671.19,1074.935 669.703,1066.065 666.834,1057.372C657.567,1033.888 645.528,1017.303 630.717,1007.619C615.906,997.935 604.51,992.009 596.53,989.84L591.315,987.477C604.262,970.843 610.637,954.124 610.441,937.32C610.184,915.346 599.101,897.377 577.193,883.413C562.241,874.215 544.3,867.477 523.37,863.197C502.44,858.917 480.931,856.907 458.844,857.165C420.537,857.613 386.965,864.47 358.13,877.735C352.642,880.708 349.929,884.78 349.989,889.95C350.106,899.968 353.269,916.736 359.478,940.257C368.958,975.051 382.943,992.339 401.432,992.123C404.922,992.082 408.57,991.393 412.375,990.056C413.067,990.048 413.773,991.332 414.495,993.909C420.345,1020.989 428.081,1046.592 437.701,1070.718L438.242,1072.651C438.253,1073.62 437.138,1074.361 434.896,1074.872C432.654,1075.383 429.47,1076.632 425.343,1078.62C415.714,1083.257 410.952,1090.1 411.058,1099.148L411.645,1104.959C416.739,1126.553 426.996,1145.986 442.415,1163.258C462.382,1185.001 488.618,1195.683 521.122,1195.302ZM539.584,1088.433C537.509,1088.457 535.843,1086.457 534.586,1082.432C533.328,1078.407 532.166,1075.108 531.098,1072.535C528.959,1067.066 527.882,1063.685 527.867,1062.392C527.852,1061.099 528.966,1060.278 531.21,1059.929C533.454,1059.58 537.515,1059.37 543.393,1059.302C547.9,1060.219 551.292,1061.957 553.57,1064.516C555.848,1067.075 557.004,1069.808 557.038,1072.717C557.106,1078.534 553.53,1083.262 546.31,1086.901C543.555,1087.903 541.313,1088.414 539.584,1088.434L539.584,1088.433ZM541.577,1069.998C542.277,1071.793 543.014,1073.854 543.785,1076.185C545.334,1075.294 546.386,1074.351 546.368,1072.841C546.362,1072.367 545.971,1072.027 545.6,1071.61C544.844,1070.761 543.7,1070.323 542.31,1069.987L541.577,1069.999L541.577,1069.998ZM501.373,970.592C497.613,970.636 494.868,969.052 493.139,965.841C491.41,962.629 489.762,958.286 488.196,952.81L488.105,945.054L490.247,944.544C492.388,944.196 495.244,944.001 498.816,943.959C503.106,943.909 507.767,944.824 512.798,946.704C517.475,949.235 519.832,952.116 519.87,955.347C519.949,962.133 514.819,967.041 504.48,970.071L501.374,970.592L501.373,970.592ZM499.944,954.643C500.602,956.549 501.272,958.227 501.969,959.672L502.061,959.656C503.995,959.06 505.666,958.39 507.051,957.591C507.634,957.255 508.2,956.976 508.604,956.636C508.488,956.557 508.369,956.479 508.25,956.403C505.297,955.363 502.534,954.747 499.943,954.642L499.944,954.643Z" style="fill:#0B0B0C;"/>
            </g>
            <g transform="matrix(4.166667,0,0,4.166667,0,0)">
                <path d="M527.332,1006.919C538.14,1041.948 578.96,1060.452 618.507,1048.251C578.96,1060.453 555.662,1098.741 566.47,1133.769C555.662,1098.74 514.842,1080.236 475.295,1092.437C514.842,1080.235 538.14,1041.947 527.332,1006.919Z" style="fill:#0B0B0C;"/>
            </g>
            <g transform="matrix(4.166667,0,0,4.166667,0,0)">
                <path d="M833.441,718.795C835.084,738.563 854.507,753.084 876.825,751.23C854.507,753.084 837.747,770.613 839.389,790.381C837.746,770.613 818.323,756.092 796.005,757.946C818.323,756.092 835.083,738.563 833.441,718.795Z"/>
            </g>
        </g>
    </g>
</svg>
